<svg id="_Layer_" data-name="&lt;Layer&gt;" xmlns="http://www.w3.org/2000/svg" xmlns:xlink="http://www.w3.org/1999/xlink" viewBox="0 0 150 150"><defs><style>.cls-1,.cls-2,.cls-8{fill:none;}.cls-1{clip-rule:evenodd;}.cls-3{clip-path:url(#clip-path);}.cls-4{fill:url(#未命名漸層_32);}.cls-5{clip-path:url(#clip-path-2);}.cls-6,.cls-7{fill:#fff;}.cls-6,.cls-8{stroke:#3f4b60;stroke-linecap:round;stroke-linejoin:round;stroke-width:4.05px;}.cls-9{clip-path:url(#clip-path-3);}.cls-10{fill:#3f4b60;}</style><clipPath id="clip-path"><path class="cls-1" d="M1174.24-3970.23H-700.26v1301.85Q-90.7-2958.34,380-2818.79t794.22-101.27Z"/></clipPath><linearGradient id="未命名漸層_32" x1="54.18" y1="46.67" x2="129" y2="46.67" gradientUnits="userSpaceOnUse"><stop offset="0" stop-color="#4ae244"/><stop offset="0.87" stop-color="#00c300"/></linearGradient><clipPath id="clip-path-2"><rect class="cls-2" x="68.27" y="49.04" width="58.24" height="53.22"/></clipPath><clipPath id="clip-path-3"><rect class="cls-2" x="21" y="49.55" width="67.53" height="73.46"/></clipPath></defs><g class="cls-3"><rect class="cls-2" x="-583.26" y="-4806.23" width="1440" height="6104"/></g><path class="cls-4" d="M123,20.91H60.18a5.76,5.76,0,0,0-6,5.44V57.89a5.76,5.76,0,0,0,6,5.44H68l7,9.1,7.24-9.1H123a5.76,5.76,0,0,0,6-5.44V26.35A5.76,5.76,0,0,0,123,20.91Z"/><g class="cls-5"><circle class="cls-6" cx="97.37" cy="66.72" r="9.51"/><rect class="cls-6" x="81.65" y="82.11" width="31.44" height="46.12" rx="13.41"/></g><polyline class="cls-6" points="84.45 129.09 129 129.09 129 100.98 21 100.98 21 128.58"/><rect class="cls-7" x="63.32" y="28.49" width="30.69" height="5.39" rx="2.69"/><rect class="cls-7" x="63.32" y="48.78" width="37.41" height="5.39" rx="2.69"/><rect class="cls-7" x="63.32" y="38.79" width="49.63" height="5.39" rx="2.69"/><line class="cls-8" x1="37.59" y1="129.09" x2="71.94" y2="129.09"/><g class="cls-9"><circle class="cls-10" cx="54.75" cy="72.5" r="12.59"/><rect class="cls-10" x="36.52" y="87.89" width="36.45" height="53.47" rx="15.55"/></g></svg>