<svg id="_Layer_" data-name="&lt;Layer&gt;" xmlns="http://www.w3.org/2000/svg" xmlns:xlink="http://www.w3.org/1999/xlink" viewBox="0 0 150 150"><defs><style>.cls-1,.cls-3,.cls-7{fill:none;}.cls-1{clip-rule:evenodd;}.cls-2{clip-path:url(#clip-path);}.cls-4{fill:#fff;stroke:#3f4b60;stroke-width:4.05px;}.cls-4,.cls-7{stroke-linecap:round;stroke-linejoin:round;}.cls-5{fill:#3f4b60;}.cls-6{fill:url(#未命名漸層_32);}.cls-7{stroke:#fff;stroke-width:5.41px;}.cls-8{fill:#00c300;fill-rule:evenodd;opacity:0.2;}</style><clipPath id="clip-path"><path class="cls-1" d="M1362.67-3970.23H-511.83v1301.85q609.56-290,1080.27-150.41t794.23-101.27Z"/></clipPath><linearGradient id="未命名漸層_32" x1="90.81" y1="51.93" x2="118.52" y2="76.8" gradientUnits="userSpaceOnUse"><stop offset="0" stop-color="#4ae244"/><stop offset="0.87" stop-color="#00c300"/></linearGradient></defs><g class="cls-2"><rect class="cls-3" x="-394.83" y="-4806.23" width="1440" height="6104"/></g><rect class="cls-4" x="39.95" y="30.33" width="68.3" height="89.32"/><path class="cls-4" d="M108.26,26.66A9.65,9.65,0,0,0,98.6,17h-49A9.66,9.66,0,0,0,40,26.66v3.27h68.31Z"/><path class="cls-4" d="M40,123.34A9.66,9.66,0,0,0,49.61,133h49a9.65,9.65,0,0,0,9.66-9.66v-3.69H40Z"/><path class="cls-5" d="M88,91.55a7.17,7.17,0,0,0-2.17-5l1.67-2.91a.21.21,0,0,0-.08-.3.23.23,0,0,0-.3.08l-1.62,2.82A9.51,9.51,0,0,0,80,83.93h-2a9.45,9.45,0,0,0-5.42,2.33L71,83.44a.22.22,0,0,0-.3-.08.23.23,0,0,0-.08.3l1.68,2.91a7.22,7.22,0,0,0-2.18,5ZM82,88a1,1,0,0,1,1-1,1,1,0,0,1,1,1h0a1,1,0,0,1-1,1,1,1,0,0,1-1-1Zm-7.64,0a1,1,0,0,1,1-1,1,1,0,0,1,1,1h0a1,1,0,0,1-2,0Zm-7.47,5.53a2,2,0,0,0-2,2V104a2,2,0,1,0,3.95,0V95.52A2,2,0,0,0,66.87,93.54Zm3.2-1.15h0a2,2,0,0,0,0,.23v12.86a2.47,2.47,0,0,0,2.46,2.5h.09v5.09a2,2,0,1,0,4,0V108h5v5.09a2,2,0,1,0,4,0V108h.1a2.47,2.47,0,0,0,2.45-2.5V92.62a1.85,1.85,0,0,0,0-.23Zm21.15,1.15a2,2,0,0,0-2,2V104a2,2,0,1,0,4,0V95.52A2,2,0,0,0,91.22,93.54Z"/><path class="cls-5" d="M69.36,53.16a6.62,6.62,0,0,1,3.16-5.57,6.8,6.8,0,0,0-5.36-2.9C64.9,44.45,62.72,46,61.57,46s-3-1.33-4.85-1.29a7.15,7.15,0,0,0-6,3.66c-2.6,4.5-.66,11.11,1.83,14.75,1.24,1.78,2.7,3.77,4.6,3.7S59.7,65.67,62,65.67s2.88,1.19,4.83,1.15S70,65,71.24,63.23a14.63,14.63,0,0,0,2-4.15,6.45,6.45,0,0,1-3.92-5.92ZM65.69,42.3a6.57,6.57,0,0,0,1.5-4.69,6.64,6.64,0,0,0-4.32,2.23,6.21,6.21,0,0,0-1.53,4.51,5.52,5.52,0,0,0,4.35-2.05Z"/><line class="cls-4" x1="39.95" y1="93.18" x2="107.49" y2="55.14"/><circle class="cls-6" cx="107.67" cy="67.06" r="26.89"/><polyline class="cls-7" points="96.31 68.91 104.43 76.61 120.34 61.07"/><path class="cls-8" d="M87.57,84.91l17,43.38s2-1.66,2-7.15c0-17.42-.47-36.37-1.66-35.18Z"/></svg>