<svg xmlns="http://www.w3.org/2000/svg" xmlns:xlink="http://www.w3.org/1999/xlink" style="position: absolute; width: 0; height: 0" aria-hidden="true" id="__SVG_SPRITE_NODE__"><symbol xmlns="http://www.w3.org/2000/svg" viewBox="0 0 30 30" id="icon-chevron-down"><g fill="none" fill-rule="evenodd"><path d="M0 0h30v30H0z"/><path stroke="currentColor" stroke-linecap="round" stroke-width="2" d="M22.071 13L15 20.071 7.929 13"/></g></symbol><symbol xmlns="http://www.w3.org/2000/svg" fill="none" viewBox="0 0 8 16" id="icon-collapse"><g clip-path="url(#icon-collapse_clip0)"><path fill-rule="evenodd" clip-rule="evenodd" d="M4.04 0L0 5.657h8.08L4.04 0zm0 16l4.04-5.657H0L4.04 16z" fill="currentColor"/></g><defs><clipPath id="icon-collapse_clip0"><path fill="currentColor" d="M0 0h8v16H0z"/></clipPath></defs></symbol><symbol xmlns="http://www.w3.org/2000/svg" viewBox="0 0 30 30" id="icon-cross"><path d="M1.889 29L28.556 1.933m-26.667 0l26.667 26.6" fill="none" stroke="currentColor" stroke-linecap="round" stroke-width="2"/></symbol><symbol xmlns="http://www.w3.org/2000/svg" viewBox="0 0 24 22" id="icon-download"><g fill="currentColor"><path d="M11.432 15.187c.076.067.166.12.264.154a.82.82 0 00.608 0 .811.811 0 00.264-.154l2.4-2.2a.693.693 0 000-1.041.855.855 0 00-1.136 0l-1.032.953V3.666c0-.405-.358-.733-.8-.733-.442 0-.8.328-.8.733v9.233l-1.032-.953a.855.855 0 00-1.136 0 .693.693 0 000 1.041l2.4 2.2z"/><path d="M20.8 11.733c-.442 0-.8.328-.8.733v4.4c0 .405-.358.734-.8.734H4.8c-.442 0-.8-.329-.8-.734v-4.4c0-.405-.358-.733-.8-.733-.442 0-.8.328-.8.733v4.4c0 1.215 1.075 2.2 2.4 2.2h14.4c1.325 0 2.4-.985 2.4-2.2v-4.4c0-.405-.358-.733-.8-.733z"/></g></symbol><symbol xmlns="http://www.w3.org/2000/svg" viewBox="0 0 30 30" id="icon-facebook-square"><g fill="none" fill-rule="evenodd"><path d="M0 0h30v30H0z"/><path fill="currentColor" d="M15.82 27H4.324A1.325 1.325 0 013 25.675V4.325C3 3.593 3.593 3 4.325 3h21.35C26.407 3 27 3.593 27 4.325v21.35c0 .732-.593 1.325-1.325 1.325H19.56v-9.294h3.12l.466-3.622H19.56V11.77c0-1.048.29-1.763 1.795-1.763h1.918v-3.24c-.332-.045-1.47-.143-2.795-.143-2.766 0-4.659 1.688-4.659 4.788v2.67h-3.127v3.623h3.127V27z"/></g></symbol><symbol xmlns="http://www.w3.org/2000/svg" viewBox="0 0 30 30" id="icon-global"><path fill="currentColor" d="M27 15c0-5.197-3.347-9.803-8.29-11.41a12.014 12.014 0 00-7.36 0 12 12 0 00.08 22.85h.05c2.33.733 4.83.733 7.16 0h.05A11.999 11.999 0 0027 15zm-7 8.67c.383-1.534.647-3.095.79-4.67h3.37A10.077 10.077 0 0120 23.67zM5 15c0-.672.068-1.342.2-2h3.86C9 13.66 9 14.33 9 15c0 .67 0 1.34.06 2H5.2a10.17 10.17 0 01-.2-2zm6 0c0-.68 0-1.34.06-2h7.88c0 .66.06 1.32.06 2 0 .68 0 1.34-.06 2h-7.88c-.06-.66-.06-1.32-.06-2zm9.94-2h3.86c.267 1.32.267 2.68 0 4h-3.86c0-.66.06-1.33.06-2 0-.67 0-1.34-.06-2zm3.22-2h-3.37A30.758 30.758 0 0020 6.33 10.077 10.077 0 0124.16 11zm-6.61-5.66A24.204 24.204 0 0118.78 11h-7.56c.182-1.929.595-3.83 1.23-5.66.832-.22 1.69-.334 2.55-.34.86.006 1.718.12 2.55.34zM10 6.33A30.758 30.758 0 009.21 11H5.84A10.077 10.077 0 0110 6.33zM5.84 19h3.37c.143 1.575.407 3.136.79 4.67A10.077 10.077 0 015.84 19zm6.61 5.66A24.204 24.204 0 0111.22 19h7.56a24.204 24.204 0 01-1.23 5.66c-.832.22-1.69.334-2.55.34-.86-.006-1.718-.12-2.55-.34z"/></symbol><symbol xmlns="http://www.w3.org/2000/svg" fill="none" viewBox="0 0 106 56" id="icon-gogolook"><path d="M.936 4.182v9.282h1.066V9.668h2.717c2.132 0 3.211-.923 3.211-2.756 0-1.82-1.066-2.73-3.198-2.73H.936zm1.066.923h2.665c.741 0 1.287.143 1.651.455.364.273.546.728.546 1.352 0 .624-.182 1.079-.533 1.378-.364.299-.91.455-1.664.455H2.002v-3.64zM12.15 6.561c-1.014 0-1.807.338-2.405 1.04-.572.663-.858 1.495-.858 2.509 0 1.001.286 1.833.858 2.483.598.702 1.39 1.053 2.405 1.053 1 0 1.807-.351 2.418-1.053.559-.65.845-1.482.845-2.483 0-1.014-.286-1.846-.858-2.509-.598-.702-1.404-1.04-2.405-1.04zm0 .871c.702 0 1.26.273 1.677.819.35.494.533 1.105.533 1.859 0 .728-.182 1.352-.533 1.846-.416.546-.975.819-1.677.819-.715 0-1.274-.273-1.664-.819-.364-.494-.533-1.105-.533-1.846 0-.754.169-1.365.533-1.859.39-.546.949-.819 1.664-.819zm3.873-.689l2.288 6.721h.975l1.586-5.408 1.56 5.408h.988l2.288-6.721h-1.144l-1.651 5.447-1.56-5.447h-.975l-1.56 5.447-1.651-5.447h-1.144zm13.323-.182c-.974 0-1.741.351-2.314 1.053-.572.663-.845 1.495-.845 2.483 0 1.092.287 1.95.884 2.6.572.624 1.352.949 2.314.949.871 0 1.586-.26 2.145-.754.455-.416.755-.936.91-1.586H31.4c-.168.468-.39.819-.675 1.053-.338.273-.794.416-1.34.416-.637 0-1.144-.208-1.508-.624-.363-.416-.558-1.001-.61-1.755h5.304c-.026-1.17-.286-2.093-.78-2.743-.547-.728-1.366-1.092-2.445-1.092zm.026.871c1.274 0 1.99.715 2.12 2.158h-4.2c.066-.663.273-1.183.637-1.573.365-.39.846-.585 1.444-.585zm7.367-.871a1.87 1.87 0 00-1.222.429c-.286.221-.52.533-.702.923v-1.17h-1.027v6.721h1.027V9.902c0-.624.17-1.157.533-1.599.351-.468.793-.689 1.313-.689.325 0 .663.039 1.001.143v-1.04c-.247-.104-.559-.156-.923-.156zm4.567 0c-.975 0-1.742.351-2.314 1.053-.572.663-.845 1.495-.845 2.483 0 1.092.285 1.95.884 2.6.572.624 1.352.949 2.313.949.871 0 1.587-.26 2.145-.754.456-.416.755-.936.91-1.586h-1.04c-.169.468-.39.819-.675 1.053-.338.273-.793.416-1.34.416-.636 0-1.144-.208-1.508-.624-.364-.416-.558-1.001-.61-1.755h5.303c-.026-1.17-.286-2.093-.78-2.743-.546-.728-1.364-1.092-2.444-1.092zm.026.871c1.273 0 1.989.715 2.118 2.158h-4.199c.066-.663.274-1.183.638-1.573.363-.39.844-.585 1.442-.585zM50.712 4v3.978c-.52-.949-1.26-1.417-2.223-1.417-.962 0-1.703.351-2.249 1.079-.507.65-.754 1.456-.754 2.444 0 1.014.247 1.846.754 2.496.546.702 1.313 1.066 2.301 1.066 1.014 0 1.768-.429 2.236-1.287v1.105h.975V4h-1.04zM48.71 7.419c.598 0 1.092.234 1.47.728.363.481.558 1.118.558 1.898v.13c0 .754-.169 1.365-.494 1.833-.377.52-.897.78-1.573.78-.728 0-1.274-.273-1.638-.793-.325-.468-.48-1.105-.48-1.911s.155-1.43.493-1.885c.364-.52.923-.78 1.664-.78zM57.694 4v9.464h.975v-1.105c.455.858 1.196 1.287 2.236 1.287.975 0 1.742-.364 2.3-1.066.495-.65.755-1.482.755-2.496 0-.988-.26-1.794-.754-2.444-.546-.728-1.3-1.079-2.25-1.079-.961 0-1.702.468-2.222 1.417V4h-1.04zm3.042 3.419c.728 0 1.274.26 1.65.78.339.455.508 1.079.508 1.885s-.17 1.443-.481 1.911c-.364.52-.91.793-1.638.793-.676 0-1.21-.26-1.573-.78-.338-.468-.507-1.079-.507-1.833v-.13c0-.78.182-1.417.572-1.898.364-.494.858-.728 1.469-.728zm3.834-.676l2.665 6.565-1.157 2.73h1.13l3.68-9.295h-1.144l-1.99 5.304-2.053-5.304H64.57z" fill="currentColor"/><path fill-rule="evenodd" clip-rule="evenodd" d="M64.744 47.78a.37.37 0 01-.373.37h-2.252a.373.373 0 01-.373-.37V31.653c.047-.253.179-.481.373-.649l2.252-1.72a.37.37 0 01.373.373v18.125zM97.27 29.284l-2.255 1.723a1.148 1.148 0 00-.37.646V47.78a.37.37 0 00.37.37h2.255a.37.37 0 00.37-.37v-5.743h.05l4.641 5.97a.371.371 0 00.296.143h2.993a.373.373 0 00.296-.61l-4.741-5.674a.38.38 0 01-.084-.25.381.381 0 01.102-.245l4.323-4.561a.373.373 0 00-.27-.627h-2.82a.385.385 0 00-.273.118l-3.867 4.144a.373.373 0 01-.646-.255V29.656a.37.37 0 00-.37-.372zM16.56 46.419a.72.72 0 00.106-.38v-7.874a.728.728 0 00-.728-.717H12.72a1.522 1.522 0 00-.927.213c-.426.368-.93.82-1.398 1.239-.44.394-.845.758-1.121.993-.222.19-.08.4.415.4h3.097a.733.733 0 01.731.728v2.995a.725.725 0 01-.417.66 8.986 8.986 0 01-3.74.708c-3.648 0-6.072-2.794-6.072-6.565 0-3.52 2.424-6.314 6.072-6.314 1.538 0 2.608.234 3.713 1.074.29.222.892.26 1.15 0l1.43-1.148a.693.693 0 000-1.075c-1.747-1.246-3.922-1.696-6.31-1.696C3.896 29.66 0 33.353 0 39.02c0 5.514 3.897 9.209 9.343 9.209a15.423 15.423 0 006.925-1.543.72.72 0 00.291-.267zm14.656-4.628c0-3.768-2.898-6.29-6.52-6.29-3.623 0-6.518 2.522-6.518 6.29 0 3.768 2.898 6.29 6.519 6.29s6.519-2.522 6.519-6.29zm-2.996 0c0 1.87-1.324 3.593-3.523 3.593s-3.524-1.72-3.524-3.593c0-1.874 1.325-3.594 3.524-3.594s3.523 1.723 3.523 3.594zm25.736-6.29c3.621 0 6.52 2.522 6.52 6.29 0 3.768-2.899 6.29-6.52 6.29-3.62 0-6.519-2.522-6.519-6.29 0-3.768 2.895-6.29 6.52-6.29zm0 9.883c2.199 0 3.523-1.723 3.523-3.593 0-1.871-1.324-3.594-3.523-3.594s-3.523 1.72-3.523 3.594c0 1.873 1.324 3.593 3.523 3.593zm-11.07-9.824h2.906a.22.22 0 01.217.225l-.024 11.926a9.976 9.976 0 01-.397 2.44 5.863 5.863 0 01-1.28 2.296 5.741 5.741 0 01-2.187 1.46c-1 .366-2.061.542-3.126.517a10.534 10.534 0 01-1.592-.13 10.976 10.976 0 01-1.653-.388 9.824 9.824 0 01-1.565-.645 8.249 8.249 0 01-.794-.474.447.447 0 01-.027-.728l1.995-1.521a.448.448 0 01.566.02c.298.269.635.491.998.66a4.533 4.533 0 002.045.513 4.811 4.811 0 001.876-.323c.506-.216 1.698-.873 1.923-2.19.103-.65.162-1.307.175-1.966a7.046 7.046 0 01-3.648.977c-3.666 0-6.6-2.552-6.6-6.364 0-3.813 2.934-6.364 6.6-6.364a7.094 7.094 0 013.372.82v-.542a.219.219 0 01.22-.219zm-7.148 6.305c0 1.894 1.33 3.638 3.556 3.638a3.425 3.425 0 003.286-2.274 3.675 3.675 0 00-.471-3.629 3.337 3.337 0 00-1.997-1.296l-.208-.041a2.544 2.544 0 00-.296-.036h-.315c-2.216 0-3.555 1.743-3.555 3.638zM72.479 35.5c3.62 0 6.519 2.522 6.519 6.29 0 3.768-2.901 6.29-6.52 6.29-3.618 0-6.519-2.522-6.519-6.29 0-3.768 2.895-6.29 6.52-6.29zm0 9.883c2.198 0 3.523-1.723 3.523-3.593 0-1.871-1.328-3.594-3.523-3.594-2.196 0-3.524 1.72-3.524 3.594 0 1.873 1.325 3.593 3.524 3.593zM93.49 41.79c0-3.768-2.895-6.29-6.52-6.29-3.623 0-6.518 2.522-6.518 6.29 0 3.768 2.898 6.29 6.519 6.29s6.52-2.522 6.52-6.29zm-2.996 0c0 1.87-1.324 3.593-3.523 3.593s-3.523-1.72-3.523-3.593c0-1.874 1.324-3.594 3.523-3.594s3.523 1.723 3.523 3.594z" fill="currentColor"/></symbol><symbol xmlns="http://www.w3.org/2000/svg" viewBox="0 0 30 10" id="icon-half-arrow-right"><path d="M21.5.5l8 8.5m-29 .5h29" fill="none" stroke="currentColor" stroke-linecap="round"/></symbol><symbol xmlns="http://www.w3.org/2000/svg" viewBox="0 0 24 24" id="icon-hamburger"><path d="M.727 12h22.4m-22.4 8.533h22.4M.727 3.111h22.4" fill="none" stroke="currentColor" stroke-linecap="round" stroke-width="2"/></symbol><symbol xmlns="http://www.w3.org/2000/svg" viewBox="0 0 30 30" id="icon-instagram-square"><g fill="currentColor" fill-rule="evenodd"><path d="M14.996 1.009c-3.801 0-4.278.016-5.77.084-1.49.068-2.508.305-3.398.65-.92.358-1.7.837-2.479 1.615a6.846 6.846 0 00-1.614 2.479c-.346.89-.583 1.907-.65 3.397-.07 1.493-.085 1.97-.085 5.77 0 3.801.016 4.278.084 5.77.068 1.49.305 2.508.65 3.398.358.92.837 1.7 1.615 2.479a6.854 6.854 0 002.479 1.614c.89.346 1.908.583 3.397.65 1.493.069 1.97.085 5.77.085 3.802 0 4.278-.016 5.77-.084 1.49-.068 2.508-.305 3.398-.65a6.882 6.882 0 002.48-1.615 6.864 6.864 0 001.613-2.479c.346-.89.583-1.908.65-3.397.07-1.493.085-1.97.085-5.77 0-3.802-.016-4.278-.084-5.77-.068-1.49-.305-2.508-.65-3.398a6.882 6.882 0 00-1.615-2.48 6.856 6.856 0 00-2.479-1.613c-.89-.346-1.907-.583-3.397-.65-1.493-.07-1.97-.085-5.77-.085zm0 2.522c3.737 0 4.18.014 5.655.081 1.365.062 2.106.29 2.599.482a4.33 4.33 0 011.609 1.047c.49.49.793.956 1.047 1.61.192.492.42 1.233.482 2.598.067 1.476.081 1.918.081 5.655s-.014 4.18-.081 5.656c-.062 1.364-.29 2.105-.482 2.599a4.33 4.33 0 01-1.047 1.609c-.49.49-.956.793-1.61 1.047-.492.191-1.233.42-2.598.482-1.476.067-1.918.081-5.655.081-3.738 0-4.18-.014-5.656-.081-1.364-.063-2.105-.29-2.599-.482a4.33 4.33 0 01-1.609-1.047 4.334 4.334 0 01-1.047-1.61c-.191-.493-.42-1.234-.482-2.598-.067-1.476-.081-1.919-.081-5.656 0-3.737.014-4.18.081-5.655.063-1.365.29-2.106.482-2.599a4.33 4.33 0 011.047-1.609c.49-.49.956-.793 1.61-1.047.493-.192 1.234-.42 2.598-.482 1.476-.067 1.919-.081 5.656-.081z"/><path d="M14.996 19.67a4.667 4.667 0 010-9.331 4.666 4.666 0 010 9.331zm0-11.853a7.187 7.187 0 00-7.187 7.187 7.186 7.186 0 007.187 7.187 7.187 7.187 0 100-14.373zm9.15-.283a1.68 1.68 0 11-3.36-.001 1.68 1.68 0 013.36.001"/></g></symbol><symbol xmlns="http://www.w3.org/2000/svg" viewBox="0 0 30 30" id="icon-line-square"><g fill="none" fill-rule="evenodd"><path d="M1 1h28v28H1z"/><path fill="currentColor" d="M22.404 1.933a5.662 5.662 0 015.663 5.663v14.808a5.662 5.662 0 01-5.663 5.663H7.596a5.662 5.662 0 01-5.663-5.663V7.596a5.662 5.662 0 015.663-5.663h14.808zM14.958 6.13c-5.246 0-9.515 3.464-9.515 7.722 0 3.817 3.385 7.014 7.957 7.618.31.067.732.204.838.469.096.24.063.617.031.86 0 0-.111.672-.136.815-.041.24-.19.94.825.513 1.015-.428 5.48-3.227 7.476-5.524 1.378-1.513 2.038-3.047 2.038-4.751 0-4.258-4.268-7.722-9.514-7.722z"/><path fill="currentColor" d="M12.798 11.592h-.654c-.1 0-.181.081-.181.182v4.06c0 .1.081.182.181.182h.654c.1 0 .181-.081.181-.181v-4.061c0-.1-.08-.182-.181-.182m4.5 0h-.654c-.1 0-.181.081-.181.182v2.412L14.6 11.673l-.014-.019-.012-.012-.003-.003-.01-.008-.004-.004-.01-.006-.005-.003-.01-.006-.006-.003-.01-.004-.006-.002-.01-.004-.007-.001-.01-.003h-.008l-.01-.002h-.669c-.1 0-.182.08-.182.18v4.062c0 .1.082.18.182.18h.653c.1 0 .182-.08.182-.18v-2.412l1.863 2.516a.2.2 0 00.047.045l.001.002.012.006.005.003.008.004.01.004.005.002.012.004h.003c.014.005.03.007.046.007h.654c.1 0 .182-.081.182-.181v-4.061c0-.1-.082-.182-.182-.182m-6.075 3.407H9.446v-3.225c0-.1-.082-.182-.182-.182H8.61c-.1 0-.181.081-.181.182v4.06c0 .05.02.094.05.126l.003.003.003.002a.175.175 0 00.125.051h2.612c.1 0 .181-.081.181-.182v-.653c0-.1-.08-.182-.181-.182m9.686-2.389c.1 0 .182-.082.182-.182v-.654c0-.1-.081-.182-.182-.182h-2.611a.18.18 0 00-.126.051l-.003.002-.002.004a.174.174 0 00-.05.125v4.06c0 .05.018.094.05.126l.002.003.003.002a.183.183 0 00.125.051h2.612c.1 0 .182-.081.182-.182v-.653c0-.1-.081-.182-.182-.182h-1.776v-.687h1.776c.1 0 .182-.08.182-.181v-.654c0-.1-.081-.182-.182-.182h-1.776v-.686h1.776z"/></g></symbol><symbol xmlns="http://www.w3.org/2000/svg" viewBox="0 0 30 30" id="icon-link-square"><path fill="currentColor" d="M21 2a7 7 0 017 7v12a7 7 0 01-7 7H9a7 7 0 01-7-7V9a7 7 0 017-7h12zm-4.551 11.552a.821.821 0 00-1.162 1.161 2.456 2.456 0 010 3.47L12.4 21.071a2.455 2.455 0 01-3.47-3.469l2.887-2.888a.82.82 0 00-1.153-1.162l-2.897 2.896a4.09 4.09 0 002.897 6.979c1.084 0 2.122-.43 2.889-1.194l2.896-2.897a4.09 4.09 0 000-5.784zm5.734-5.735a4.092 4.092 0 00-5.735-.05l-2.896 2.897a4.09 4.09 0 000 5.784.814.814 0 00.581.237.818.818 0 00.582-1.398 2.456 2.456 0 010-3.47l2.886-2.888a2.455 2.455 0 013.47 3.469l-2.888 2.888a.82.82 0 001.153 1.162l2.897-2.896a4.092 4.092 0 00-.05-5.735z"/></symbol><symbol xmlns="http://www.w3.org/2000/svg" viewBox="0 0 24 24" id="icon-minus"><path fill="currentColor" d="M22 10a2 2 0 01.15 3.995L22 14H2a2 2 0 01-.15-3.995L2 10h20z"/></symbol><symbol xmlns="http://www.w3.org/2000/svg" viewBox="0 0 24 25" id="icon-plus"><path fill="currentColor" d="M12 .25c1.054 0 1.918.816 1.995 1.85l.005.15v8h8a2 2 0 01.15 3.995l-.15.005h-8v8a2 2 0 01-3.995.15L10 22.25v-8H2a2 2 0 01-.15-3.995L2 10.25h8v-8a2 2 0 012-2z"/></symbol><symbol xmlns="http://www.w3.org/2000/svg" viewBox="0 0 30 30" id="icon-search"><path fill="currentColor" d="M21.94 20.27L27 25.327 25.328 27l-5.059-5.06a10.58 10.58 0 01-6.636 2.326C7.763 24.266 3 19.503 3 13.633 3 7.763 7.764 3 13.633 3c5.87 0 10.633 4.764 10.633 10.633a10.58 10.58 0 01-2.326 6.636zm-2.37-.877a8.24 8.24 0 002.333-5.76c0-4.57-3.701-8.27-8.27-8.27-4.57 0-8.27 3.7-8.27 8.27 0 4.569 3.7 8.27 8.27 8.27a8.244 8.244 0 005.76-2.333l.177-.177z"/></symbol><symbol xmlns="http://www.w3.org/2000/svg" viewBox="0 0 24 24" id="icon-sent"><path d="M24 0L8.895 14.672 0 9.913zm0 0L9.787 15.455v7.868l4.053-5.863 6.56 3.758z" fill="currentColor" fill-rule="evenodd"/></symbol><symbol xmlns="http://www.w3.org/2000/svg" viewBox="0 0 18 17" id="icon-star"><path fill="currentColor" fill-rule="evenodd" d="M9 13.5l-5.29 2.781 1.01-5.89L.44 6.219l5.915-.86L9 0l2.645 5.359 5.915.86-4.28 4.172 1.01 5.89z"/></symbol><symbol xmlns="http://www.w3.org/2000/svg" viewBox="0 0 30 30" id="icon-trophy"><g fill="none" fill-rule="evenodd"><path fill="currentColor" d="M5.294 2c0 8.4 3.515 15.773 8.124 16.389.877.117 2.64.1 3.517 0C21.548 17.86 25.06 10.399 25.06 2H5.294z"/><path fill="currentColor" d="M17.211 8.588h-4.082l-1.247 14.824h6.589z"/><path fill="currentColor" d="M22.501 28.52l-.581-4.604v-.097c0-.777-.868-1.407-1.938-1.407h-9.61c-1.071 0-1.939.63-1.939 1.407v.097l-.581 4.603h-.325c-.324 0-.586.19-.586.425V29h16.47v-.056c0-.235-.261-.425-.585-.425h-.325z"/><path stroke="currentColor" stroke-linecap="round" stroke-width="2" d="M24.235 3.943h4.167c-.274 6.39-2.437 9.586-6.49 9.586M6.167 3.943H2c.274 6.39 2.437 9.586 6.489 9.586"/></g></symbol><symbol xmlns="http://www.w3.org/2000/svg" viewBox="0 0 30 30" id="icon-twitter-square"><g fill="none" fill-rule="evenodd"><path d="M0 0h30v30H0z"/><path fill="currentColor" d="M27 7.368a9.623 9.623 0 01-2.827.794 5.038 5.038 0 002.165-2.792 9.685 9.685 0 01-3.129 1.223A4.858 4.858 0 0019.616 5c-2.718 0-4.922 2.26-4.922 5.049 0 .396.042.78.126 1.15-4.092-.211-7.72-2.22-10.15-5.277a5.148 5.148 0 00-.666 2.54c0 1.751.87 3.297 2.19 4.203a4.829 4.829 0 01-2.23-.63v.062c0 2.447 1.697 4.488 3.95 4.95-.412.12-.847.178-1.296.178-.317 0-.627-.03-.927-.09.626 2.006 2.444 3.466 4.599 3.505A9.725 9.725 0 013 22.733 13.711 13.711 0 0010.548 25c9.058 0 14.01-7.692 14.01-14.365 0-.22-.005-.439-.013-.654A10.1 10.1 0 0027 7.368"/></g></symbol><symbol xmlns="http://www.w3.org/2000/svg" viewBox="0 0 30 30" id="icon-youtube-square"><g fill="none" fill-rule="evenodd"><path d="M0 0h30v30H0z"/><path fill="currentColor" d="M15.325 5c1.673.008 9.317.07 11.396.624a3.751 3.751 0 012.653 2.641c.578 2.15.623 6.457.626 7.107v.166c-.003.65-.048 4.956-.626 7.106a3.748 3.748 0 01-2.653 2.641c-2.166.578-10.37.62-11.573.624h-.295c-1.204-.003-9.408-.046-11.574-.624a3.748 3.748 0 01-2.652-2.64C.064 20.553.007 16.424 0 15.6v-.29c.006-.826.063-4.955.626-7.045a3.747 3.747 0 012.652-2.64c2.08-.556 9.723-.617 11.396-.624zm-2.658 5.88v9.149L20 15.455l-7.333-4.574z"/></g></symbol></svg>