<svg id="_Layer_" data-name="&lt;Layer&gt;" xmlns="http://www.w3.org/2000/svg" xmlns:xlink="http://www.w3.org/1999/xlink" viewBox="0 0 150 150"><defs><style>.cls-1,.cls-16,.cls-2{fill:none;}.cls-1,.cls-3{clip-rule:evenodd;}.cls-13,.cls-3,.cls-4,.cls-7,.cls-9{fill:#fff;}.cls-5{clip-path:url(#clip-path);}.cls-6{clip-path:url(#clip-path-2);}.cls-7,.cls-9{stroke:#3f4b60;stroke-linejoin:round;}.cls-16,.cls-7,.cls-9{stroke-linecap:round;}.cls-7{stroke-width:3.81px;}.cls-8{fill:#00c300;opacity:0.2;}.cls-13,.cls-16,.cls-8{fill-rule:evenodd;}.cls-9{stroke-width:4.05px;}.cls-10{clip-path:url(#clip-path-3);}.cls-11{fill:#3f4b60;}.cls-12{fill:url(#未命名漸層_32);}.cls-14{clip-path:url(#clip-path-4);}.cls-15{clip-path:url(#clip-path-5);}.cls-16{stroke:#00c300;stroke-linejoin:bevel;stroke-width:3.12px;}</style><clipPath id="clip-path"><path class="cls-1" d="M-862-2903.31a53,53,0,0,0-53,53,53,53,0,0,0,53,53H-758.8l21.77,15v-15.14a53,53,0,0,0,49-52.86,53,53,0,0,0-53-53Z"/></clipPath><clipPath id="clip-path-2"><path class="cls-1" d="M1553.65-3970.23H-320.85v1301.85q609.54-290,1080.27-150.41t794.23-101.27Z"/></clipPath><clipPath id="clip-path-3"><rect class="cls-2" x="46.8" y="38.1" width="28.58" height="29.19"/></clipPath><linearGradient id="未命名漸層_32" x1="73.32" y1="66.07" x2="135.35" y2="66.07" gradientUnits="userSpaceOnUse"><stop offset="0" stop-color="#4ae244"/><stop offset="0.87" stop-color="#00c300"/></linearGradient><clipPath id="clip-path-4"><path class="cls-3" d="M90.35,59.33q7.43-1,8.53-8.26h12.17q1.23,7.57,8.93,8.26h-.09Q121.11,77.12,105,84.12c-13.34-5.51-16.44-17.63-14.7-24.79Z"/></clipPath><clipPath id="clip-path-5"><rect class="cls-4" x="89.48" y="51.03" width="30.59" height="33.55"/></clipPath></defs><g class="cls-6"><rect class="cls-2" x="-203.85" y="-4806.23" width="1440" height="6104"/></g><rect class="cls-7" x="27.93" y="19.87" width="86.14" height="110.26" rx="10.44"/><polygon class="cls-8" points="75.39 77.92 98.77 127.68 112.62 127.68 112.62 94.73 75.39 77.92"/><rect class="cls-9" x="42.91" y="35.8" width="36.76" height="31.08"/><g class="cls-10"><circle class="cls-11" cx="61.08" cy="47.44" r="5.33"/><rect class="cls-11" x="53.37" y="54.33" width="15.43" height="22.63" rx="6.58"/></g><rect class="cls-11" x="40.22" y="78.32" width="50.53" height="6.52"/><rect class="cls-11" x="40.22" y="90.31" width="50.53" height="6.52"/><rect class="cls-11" x="40.22" y="102.3" width="38.04" height="6.52"/><circle class="cls-12" cx="104.34" cy="66.07" r="31.01"/><path class="cls-13" d="M90.35,59.33q7.43-1,8.53-8.26h12.17q1.23,7.57,8.93,8.26h-.09Q121.11,77.12,105,84.12c-13.34-5.51-16.44-17.63-14.7-24.79Z"/><g class="cls-14"><rect class="cls-4" x="89.48" y="51.03" width="30.59" height="33.55"/><g class="cls-15"><path class="cls-4" d="M90.35,59.33q7.43-1,8.53-8.26h12.17q1.23,7.57,8.93,8.26h-.09Q121.11,77.12,105,84.12c-13.34-5.51-16.44-17.63-14.7-24.79Z"/></g></g><polyline class="cls-16" points="98.77 67.59 104.34 74.34 112.22 62.69"/></svg>