<svg xmlns="http://www.w3.org/2000/svg" xmlns:xlink="http://www.w3.org/1999/xlink" viewBox="0 0 206 40">
    <defs>
        <path id="prefix__a" d="M0 0L205 0 205 39 0 39z"/>
    </defs>
    <g fill="none" fill-rule="evenodd">
        <mask id="prefix__b" fill="#fff">
            <use xlink:href="#prefix__a"/>
        </mask>
        <path fill="#00C300" d="M201.354 0c-2.233 0-3.765 1.29-3.765 3.765v31.323c0 2.476 1.473 3.765 3.706 3.765 2.233 0 3.705-1.289 3.705-3.765V3.765C205 1.29 203.587 0 201.354 0zm-13.049 0c-2.233 0-3.764 1.29-3.764 3.765v31.323c0 2.476 1.472 3.765 3.704 3.765 2.234 0 3.706-1.289 3.706-3.765V3.765c0-2.475-1.413-3.765-3.646-3.765zm-16.568 27.591c0 3.457-3.32 6.469-6.547 6.469-2.538 0-4.111-1.299-4.111-3.255 0-2.607 1.674-3.733 4.77-4.267l2.69-.474c.864-.178 2.386-.474 3.198-1.363v2.89zm7.41-9.315c0-5.416-4.923-7.736-12.028-7.736-7.613 0-11.776 3.696-11.776 6.687 0 1.547 1.27 2.888 3.147 2.888 2.944 0 3.097-4.936 8.578-4.936 2.487 0 4.67 1.394 4.67 3.56 0 2.166-1.422 3.044-3.198 3.25l-4.518.516c-5.684.67-10.353 2.423-10.353 8.664 0 4.745 4.162 7.684 8.374 7.684 3.908 0 7.258-1.134 10.151-4.384.101 2.322 1.167 4.384 4.365 4.384 1.776 0 3.35-1.186 3.35-2.888 0-1.186-.762-1.908-.762-5.054V18.276zm-30.905 9.85c-3.909 0-2.765 5.511-7.942 5.511-4.06 0-6.283-3.705-6.283-8.399 0-6.265 2.076-9.724 5.68-9.724 5.9 0 3.924 4.842 8.395 4.842 1.73 0 2.575-1.19 2.575-2.527 0-3.707-5.151-7.289-10.835-7.289-8.545 0-13.225 5.31-13.225 14.698 0 7.891 4.379 13.615 13.515 13.615 7.613 0 11.216-4.538 11.23-7.839.007-1.754-1.232-2.888-3.11-2.888zm-33.29-6.253l-3.096-.727c-2.284-.52-3.96-.935-3.96-2.699 0-1.61 1.557-3.267 4.146-3.267 4.624 0 4.72 3.644 7.613 3.644 1.929 0 3.052-.938 3.052-2.702 0-3.478-5.47-5.729-11.105-5.729-5.126 0-11.115 2.396-11.115 8.573 0 5.087 3.35 6.903 7.664 7.993l4.365 1.09c2.64.674 4.263.986 4.263 2.906 0 1.558-1.675 2.934-4.314 2.934-5.481 0-5.786-4.854-8.984-4.854-2.08 0-2.994 1.505-2.994 3.166 0 3.737 5.583 6.799 12.283 6.799 5.583 0 11.42-2.855 11.42-9.03 0-5.294-5.025-7.112-9.238-8.097zm-30.84 12.496c-4.415 0-6.293-5.108-6.293-9.698 0-4.9 1.98-9.502 6.293-9.502 4.314 0 6.294 4.603 6.294 9.502 0 4.59-1.878 9.698-6.294 9.698zm0-23.829c-8.933 0-13.703 6.189-13.703 14.131 0 7.53 3.603 14.182 13.703 14.182S97.816 32.2 97.816 24.671c0-7.942-4.771-14.13-13.704-14.13zm-26.316 0c-3.768 0-6.534 1.287-8.006 3.248h-.102V3.765C49.688 1.29 48.217 0 45.983 0c-2.233 0-3.705 1.29-3.705 3.765v31.323c0 2.012.812 3.765 3.705 3.765s3.705-1.753 3.705-3.765V22.66c0-3.765 3.045-5.931 5.634-5.931 3.197 0 4.67 2.166 4.67 5.209v13.15c0 2.012.811 3.765 3.705 3.765 2.893 0 3.704-1.753 3.704-3.765V20.442c0-7.633-5.139-9.902-9.605-9.902zm-22.51-.28c-1.742 0-3.245 1.201-3.615 2.883l-3.893 14.67L23.98 13.16c-.362-1.689-1.87-2.898-3.618-2.898h-1.665c-1.76 0-3.279 1.228-3.625 2.935l-3.582 14.54L7.6 13.14c-.371-1.682-1.875-2.88-3.615-2.88H3.7c-2.448 0-4.221 2.312-3.56 4.645l5.795 20.404c.61 2.149 2.593 3.634 4.85 3.634 2.37 0 4.42-1.632 4.924-3.92l3.74-14.479 3.7 14.496c.497 2.277 2.534 3.903 4.89 3.903 2.227 0 4.186-1.453 4.805-3.568l5.993-20.441c.686-2.339-1.09-4.673-3.55-4.673z" mask="url(#prefix__b)"/>
    </g>
</svg>
